<svg width="222" height="78.526" viewBox="0 0 120 42.446"><g xmlns="http://www.w3.org/2000/svg" fill="#6696ef"><path d="M106.516 42.446H13.615C6.14 42.446 0 36.706 0 29.632V12.814C0 5.74 6.14 0 13.615 0h92.768c7.475 0 13.615 5.74 13.615 12.814v16.818c.133 7.075-6.007 12.814-13.482 12.814zM13.615 5.873c-4.271 0-7.875 3.204-7.875 6.941v16.818c0 3.871 3.47 6.941 7.875 6.941h92.768c4.271 0 7.875-3.203 7.875-6.94V12.813c0-3.87-3.47-6.94-7.875-6.94H13.615z"/><path d="M21.89 28.298a2.108 2.108 0 0 1-2.135-2.136v-9.61c0-1.202.934-2.136 2.136-2.136 1.2 0 2.135.934 2.135 2.135v9.61c0 1.069-.934 2.137-2.135 2.137z"/><path d="M17.352 25.761c-.8 0-1.468-.4-1.868-1.2-.534-1.069-.134-2.403.934-2.937l9.077-4.806c1.067-.534 2.402-.133 2.936.935.534 1.068.134 2.402-.934 2.936l-9.077 4.806c-.4.266-.667.266-1.068.266z"/><path d="M26.429 25.761c-.4 0-.667-.133-1.068-.266l-9.077-4.806c-1.067-.534-1.468-1.868-.934-2.936.534-1.068 1.869-1.469 2.937-.935l9.076 4.806c1.068.534 1.469 1.868.935 2.936-.267.801-1.068 1.201-1.87 1.201zM40.978 28.298a2.108 2.108 0 0 1-2.136-2.136v-9.61c0-1.202.935-2.136 2.136-2.136s2.136.934 2.136 2.135v9.61c0 1.069-.935 2.137-2.136 2.137z"/><path d="M36.44 25.761c-.801 0-1.468-.4-1.869-1.2-.534-1.069-.133-2.403.934-2.937l9.077-4.806c1.068-.534 2.403-.133 2.937.935.534 1.068.133 2.402-.935 2.936l-9.076 4.806c-.4.266-.668.266-1.068.266z"/><path d="M45.516 25.761c-.4 0-.667-.133-1.067-.266l-9.077-4.806c-1.068-.534-1.468-1.868-.934-2.936.534-1.068 1.868-1.469 2.936-.935l9.077 4.806c1.068.534 1.468 1.868.934 2.936-.267.801-1.068 1.201-1.869 1.201zM60.066 28.298a2.108 2.108 0 0 1-2.136-2.136v-9.61c0-1.202.934-2.136 2.136-2.136 1.201 0 2.135.934 2.135 2.135v9.61c0 1.069-.934 2.137-2.135 2.137z"/><path d="M55.527 25.761c-.8 0-1.468-.4-1.868-1.2-.534-1.069-.134-2.403.934-2.937l9.077-4.806c1.067-.534 2.402-.133 2.936.935.534 1.068.134 2.402-.934 2.936l-9.077 4.806c-.4.266-.667.266-1.068.266z"/><path d="M64.604 25.761c-.4 0-.667-.133-1.068-.266l-9.076-4.806c-1.068-.534-1.469-1.868-.935-2.936.534-1.068 1.869-1.469 2.937-.935l9.076 4.806c1.068.534 1.469 1.868.935 2.936-.267.801-1.068 1.201-1.869 1.201zM79.153 28.298a2.108 2.108 0 0 1-2.135-2.136v-9.61c0-1.202.934-2.136 2.135-2.136 1.202 0 2.136.934 2.136 2.135v9.61c0 1.069-.934 2.137-2.136 2.137z"/><path d="M74.615 25.761c-.801 0-1.468-.4-1.869-1.2-.534-1.069-.133-2.403.935-2.937l9.076-4.806c1.068-.534 2.403-.133 2.937.935.534 1.068.133 2.402-.935 2.936l-9.076 4.806c-.4.266-.668.266-1.068.266z"/><path d="M83.692 25.761c-.4 0-.668-.133-1.068-.266l-9.077-4.806c-1.068-.534-1.468-1.868-.934-2.936.534-1.068 1.868-1.469 2.936-.935l9.077 4.806c1.068.534 1.468 1.868.934 2.936-.4.801-1.068 1.201-1.868 1.201zM98.24 28.298a2.108 2.108 0 0 1-2.135-2.136v-9.61c0-1.202.934-2.136 2.136-2.136s2.135.934 2.135 2.135v9.61c0 1.069-.934 2.137-2.135 2.137z"/><path d="M93.702 25.761c-.8 0-1.468-.4-1.868-1.2-.534-1.069-.134-2.403.934-2.937l9.077-4.806c1.068-.534 2.402-.133 2.936.935.534 1.068.134 2.402-.934 2.936l-9.077 4.806c-.4.266-.667.266-1.068.266z"/><path d="M102.779 25.761c-.4 0-.667-.133-1.068-.266l-9.076-4.806c-1.068-.534-1.469-1.868-.935-2.936.534-1.068 1.869-1.469 2.937-.935l9.076 4.806c1.068.534 1.469 1.868.935 2.936-.4.801-1.068 1.201-1.869 1.201zM79.153 28.298a2.108 2.108 0 0 1-2.135-2.136v-9.61c0-1.202.934-2.136 2.135-2.136 1.202 0 2.136.934 2.136 2.135v9.61c0 1.069-.934 2.137-2.136 2.137z"/><path d="M74.615 25.761c-.801 0-1.468-.4-1.869-1.2-.534-1.069-.133-2.403.935-2.937l9.076-4.806c1.068-.534 2.403-.133 2.937.935.534 1.068.133 2.402-.935 2.936l-9.076 4.806c-.4.266-.668.266-1.068.266z"/></g></svg>