<svg width="222" height="119.043" viewBox="0 0 300 160.869"><g xmlns="http://www.w3.org/2000/svg" fill="#6696ef"><path d="M196.516 42.446h-92.901C96.14 42.446 90 36.706 90 29.632V12.814C90 5.74 96.14 0 103.615 0h92.768c7.475 0 13.615 5.74 13.615 12.814v16.818c.133 7.075-6.007 12.814-13.482 12.814zM103.615 5.873c-4.271 0-7.875 3.204-7.875 6.941v16.818c0 3.871 3.47 6.941 7.875 6.941h92.768c4.271 0 7.875-3.203 7.875-6.94V12.813c0-3.87-3.47-6.94-7.875-6.94h-92.768z"/><path d="M111.89 28.298a2.108 2.108 0 0 1-2.135-2.136v-9.61c0-1.202.934-2.136 2.136-2.136 1.2 0 2.135.934 2.135 2.135v9.61c0 1.069-.934 2.137-2.135 2.137z"/><path d="M107.352 25.761c-.8 0-1.468-.4-1.868-1.2-.534-1.069-.134-2.403.934-2.937l9.077-4.806c1.067-.534 2.402-.133 2.936.935.534 1.068.134 2.402-.934 2.936l-9.077 4.806c-.4.266-.667.266-1.068.266z"/><path d="M116.429 25.761c-.4 0-.667-.133-1.068-.266l-9.077-4.806c-1.067-.534-1.468-1.868-.934-2.936.534-1.068 1.869-1.469 2.937-.935l9.076 4.806c1.068.534 1.469 1.868.935 2.936-.267.801-1.068 1.201-1.87 1.201zM130.978 28.298a2.108 2.108 0 0 1-2.136-2.136v-9.61c0-1.202.935-2.136 2.136-2.136s2.136.934 2.136 2.135v9.61c0 1.069-.935 2.137-2.136 2.137z"/><path d="M126.44 25.761c-.801 0-1.468-.4-1.869-1.2-.534-1.069-.133-2.403.934-2.937l9.077-4.806c1.068-.534 2.403-.133 2.937.935.534 1.068.133 2.402-.935 2.936l-9.076 4.806c-.4.266-.668.266-1.068.266z"/><path d="M135.516 25.761c-.4 0-.667-.133-1.067-.266l-9.077-4.806c-1.068-.534-1.468-1.868-.934-2.936.534-1.068 1.868-1.469 2.936-.935l9.077 4.806c1.068.534 1.468 1.868.934 2.936-.267.801-1.068 1.201-1.869 1.201zM150.066 28.298a2.108 2.108 0 0 1-2.136-2.136v-9.61c0-1.202.934-2.136 2.136-2.136 1.201 0 2.135.934 2.135 2.135v9.61c0 1.069-.934 2.137-2.135 2.137z"/><path d="M145.527 25.761c-.8 0-1.468-.4-1.868-1.2-.534-1.069-.134-2.403.934-2.937l9.077-4.806c1.067-.534 2.402-.133 2.936.935.534 1.068.134 2.402-.934 2.936l-9.077 4.806c-.4.266-.667.266-1.068.266z"/><path d="M154.604 25.761c-.4 0-.667-.133-1.068-.266l-9.076-4.806c-1.068-.534-1.469-1.868-.935-2.936.534-1.068 1.869-1.469 2.937-.935l9.076 4.806c1.068.534 1.469 1.868.935 2.936-.267.801-1.068 1.201-1.869 1.201zM169.153 28.298a2.108 2.108 0 0 1-2.135-2.136v-9.61c0-1.202.934-2.136 2.135-2.136 1.202 0 2.136.934 2.136 2.135v9.61c0 1.069-.934 2.137-2.136 2.137z"/><path d="M164.615 25.761c-.801 0-1.468-.4-1.869-1.2-.534-1.069-.133-2.403.935-2.937l9.076-4.806c1.068-.534 2.403-.133 2.937.935.534 1.068.133 2.402-.935 2.936l-9.076 4.806c-.4.266-.668.266-1.068.266z"/><path d="M173.692 25.761c-.4 0-.668-.133-1.068-.266l-9.077-4.806c-1.068-.534-1.468-1.868-.934-2.936.534-1.068 1.868-1.469 2.936-.935l9.077 4.806c1.068.534 1.468 1.868.934 2.936-.4.801-1.068 1.201-1.868 1.201zM188.24 28.298a2.108 2.108 0 0 1-2.135-2.136v-9.61c0-1.202.934-2.136 2.136-2.136s2.135.934 2.135 2.135v9.61c0 1.069-.934 2.137-2.135 2.137z"/><path d="M183.702 25.761c-.8 0-1.468-.4-1.868-1.2-.534-1.069-.134-2.403.934-2.937l9.077-4.806c1.068-.534 2.402-.133 2.936.935.534 1.068.134 2.402-.934 2.936l-9.077 4.806c-.4.266-.667.266-1.068.266z"/><path d="M192.779 25.761c-.4 0-.667-.133-1.068-.266l-9.076-4.806c-1.068-.534-1.469-1.868-.935-2.936.534-1.068 1.869-1.469 2.937-.935l9.076 4.806c1.068.534 1.469 1.868.935 2.936-.4.801-1.068 1.201-1.869 1.201zM169.153 28.298a2.108 2.108 0 0 1-2.135-2.136v-9.61c0-1.202.934-2.136 2.135-2.136 1.202 0 2.136.934 2.136 2.135v9.61c0 1.069-.934 2.137-2.136 2.137z"/><path d="M164.615 25.761c-.801 0-1.468-.4-1.869-1.2-.534-1.069-.133-2.403.935-2.937l9.076-4.806c1.068-.534 2.403-.133 2.937.935.534 1.068.133 2.402-.935 2.936l-9.076 4.806c-.4.266-.668.266-1.068.266z"/></g><path fill="#6696ef" d="M29.636 74.083c1.486 0 2.659 1.094 2.659 2.58 0 1.408-1.173 2.58-2.659 2.58H15.64v5.24h9.149a2.637 2.637 0 0 1 2.659 2.658c0 1.408-1.173 2.58-2.659 2.58h-11.73c-1.485 0-2.658-1.172-2.658-2.58V76.663c0-1.486 1.173-2.58 2.659-2.58h16.577zM24.788 94.96c1.486 0 2.659 1.173 2.659 2.58a2.637 2.637 0 0 1-2.659 2.659h-9.149v5.16h13.997a2.637 2.637 0 0 1 2.659 2.66c0 1.407-1.173 2.58-2.659 2.58H13.06c-1.486 0-2.659-1.173-2.659-2.58V97.54c0-1.407 1.173-2.58 2.659-2.58h11.729zm4.848 20.878a2.637 2.637 0 0 1 2.659 2.659c0 1.407-1.173 2.58-2.659 2.58H2.58a2.603 2.603 0 0 1-2.58-2.58V66.185a2.603 2.603 0 0 1 2.58-2.58h27.056c1.486 0 2.659 1.172 2.659 2.58a2.637 2.637 0 0 1-2.659 2.658H5.24v46.996h24.397zm18.298 2.659c0 1.407-1.095 2.658-2.58 2.658-1.408 0-2.581-1.25-2.581-2.658V66.185c0-1.408 1.173-2.502 2.58-2.502 1.486 0 2.58 1.094 2.58 2.502v52.313zm42.695 0c0 1.407-1.173 2.658-2.659 2.658-1.407 0-2.58-1.25-2.58-2.658V66.185c0-1.408 1.173-2.502 2.58-2.502 1.486 0 2.659 1.094 2.659 2.502v52.313zm-9.931-1.486c.782 1.173.469 2.737-.626 3.675a2.715 2.715 0 0 1-3.675-.704L58.412 94.257v24.24c0 1.408-1.173 2.581-2.659 2.581-1.407 0-2.502-1.173-2.502-2.58v-32.53c0-.86.313-1.642 1.095-2.111 1.095-.938 2.815-.626 3.597.626l22.755 32.529zM52.704 67.749c-.86-1.251-.548-2.815.625-3.597 1.173-.939 2.815-.548 3.597.625l17.985 25.727v-24.32c0-1.407 1.252-2.501 2.659-2.501s2.58 1.094 2.58 2.502v32.53c0 .86-.39 1.72-1.172 2.189-1.173.86-2.737.547-3.597-.626l-22.677-32.53zm66.232 50.749a2.603 2.603 0 0 1-2.58 2.58c-1.487 0-2.66-1.173-2.66-2.58V66.185c0-1.408 1.173-2.58 2.66-2.58a2.603 2.603 0 0 1 2.58 2.58v52.313zm-10.479 0a2.603 2.603 0 0 1-2.58 2.58c-1.486 0-2.659-1.173-2.659-2.58V66.185c0-1.408 1.173-2.58 2.659-2.58a2.603 2.603 0 0 1 2.58 2.58v52.313zm66.154-3.05c0 .938-.548 1.799-1.408 2.268-19.549 10.79-43.79-1.095-44.18-24.866-.391-22.286 20.33-35.032 42.225-27.994 3.754 1.172 2.112 6.177-1.564 4.926-18.375-5.943-35.735 4.3-35.422 22.99.313 19.705 20.018 28.54 35.11 21.112V92.302c0-3.44 5.239-3.44 5.239 0v23.146zm-4.145-39.801c3.128 1.485 1.017 6.177-2.11 4.848-2.816-1.251-6.1-1.799-9.854-1.72-17.828.703-17.28 27.055.157 26.899V92.302c0-3.44 5.317-3.44 5.317 0v15.796c0 2.815-3.597 2.893-5.552 2.893-23.771 0-24.866-36.517-.078-37.378 4.614-.156 8.602.548 12.12 2.034zm63.495 42.773c0 1.485-1.173 2.658-2.658 2.658s-2.659-1.173-2.659-2.658V93.788l-10.713 15.404c-.86 1.173-2.58 1.486-3.753.704-.235-.234-.47-.469-.626-.704L202.84 93.788v24.632c0 1.485-1.173 2.658-2.736 2.658-1.408 0-2.58-1.173-2.58-2.658V85.343c0-.782.39-1.642 1.094-2.112 1.173-.86 2.893-.547 3.753.626l13.293 19.236 13.45-19.158a2.6 2.6 0 0 1 2.19-1.173c1.485 0 2.658 1.173 2.658 2.58v33.078zm-41.756 0c0 1.485-1.173 2.658-2.659 2.658s-2.658-1.173-2.658-2.658V65.403c0-1.486 1.172-2.659 2.658-2.659s2.659 1.173 2.659 2.659v53.017zm52.39 0c0 1.485-1.172 2.658-2.736 2.658-1.408 0-2.58-1.173-2.58-2.658V65.403c0-1.486 1.172-2.659 2.58-2.659 1.564 0 2.737 1.173 2.737 2.659v53.017zM230.13 63.839a2.72 2.72 0 0 1 3.753-.626c1.173.86 1.408 2.503.626 3.676L217.93 90.66c-.86 1.251-2.58 1.564-3.753.626a1.846 1.846 0 0 1-.626-.704l-16.577-23.693c-.782-1.173-.548-2.815.625-3.676s2.894-.547 3.754.626l14.31 20.722 14.466-20.722zm42.147 41.6c-1.407 0-2.58-1.173-2.58-2.659s1.173-2.58 2.58-2.58h3.753l-2.345-5.787c-.47-1.329.156-2.893 1.407-3.362 1.408-.547 2.893.078 3.44 1.33l3.832 9.383c.157.313.235.625.235 1.016 0 1.486-1.251 2.659-2.737 2.659h-7.585zm-3.831 13.528c-.47 1.33-1.955 1.955-3.363 1.486-1.33-.626-1.955-2.112-1.407-3.441l1.876-4.77c.47-.938 1.486-1.642 2.424-1.642h16.187c1.173 0 2.19.86 2.502 1.877l1.877 4.535c.469 1.33-.078 2.815-1.408 3.44-1.33.47-2.893-.078-3.44-1.485l-1.251-3.05h-12.668l-1.33 3.05zm-11.182 0c-.626 1.33-2.112 1.955-3.441 1.486-1.251-.626-1.955-2.112-1.486-3.441l21.348-53.33c.547-1.407 2.11-2.033 3.362-1.485.782.234 1.251.86 1.486 1.486l21.269 53.329c.547 1.33-.078 2.815-1.408 3.44-1.329.47-2.893-.156-3.44-1.485l-18.845-47.465-18.845 47.465zM42.65 138.445c1.273.435.59 2.422-.715 1.957-2.795-.994-6.15-1.522-8.2.745-1.676 1.77-2.111 5.032.125 6.957 2.702 2.423 6.554 1.895 6.771 5.187.093 1.74-1.429 3.013-3.106 3.137-2.019.124-4.535-.373-6.584-1.864-1.088-.776.124-2.453 1.21-1.677 2.392 1.74 6.585 2.05 6.399.497-.124-1.46-3.2-1.211-6.088-3.727-4.503-3.944-1.77-11.802 4.628-12.113 1.864-.093 3.386.155 5.56.9zm-12.113 20.53c-1.18-.621-.218-2.454.994-1.833 4.783 2.547 11.274 1.895 11.274-3.85 0-4.256-5.59-5.033-7.175-6.306-2.484-1.957-1.18-7.454 6.554-4.317 1.211.497.466 2.422-.808 1.894-4.69-1.894-5.497.032-4.472.839 1.15.87 7.951 2.112 7.951 7.89 0 5.683-5.032 8.354-10.84 6.956a12.908 12.908 0 0 1-3.478-1.273zm6.802-4.597zm25.165 5.063c0 .559-.466 1.025-1.025 1.025-.59 0-1.056-.466-1.056-1.025v-20.779c0-.559.466-1.025 1.056-1.025.559 0 1.025.466 1.025 1.025v20.779zm-4.162 0c0 .559-.466 1.025-1.025 1.025-.59 0-1.056-.466-1.056-1.025v-20.779c0-.559.466-1.025 1.056-1.025.559 0 1.025.466 1.025 1.025v20.779zm35.538-.031c0 .59-.466 1.056-1.056 1.056s-1.056-.466-1.056-1.056v-9.784l-4.255 6.119c-.341.466-1.025.59-1.49.28-.094-.094-.187-.187-.25-.28l-4.254-6.119v9.784c0 .59-.466 1.056-1.087 1.056-.56 0-1.025-.466-1.025-1.056v-13.138c0-.31.155-.653.435-.839.465-.342 1.149-.217 1.49.249l5.28 7.64 5.343-7.61c.186-.279.497-.465.87-.465.59 0 1.055.466 1.055 1.025v13.138zm-16.585 0c0 .59-.466 1.056-1.056 1.056s-1.056-.466-1.056-1.056v-21.058c0-.59.466-1.056 1.056-1.056s1.056.465 1.056 1.056v21.058zm20.81 0c0 .59-.467 1.056-1.088 1.056-.559 0-1.025-.466-1.025-1.056v-21.058c0-.59.466-1.056 1.025-1.056.621 0 1.087.465 1.087 1.056v21.058zm-5.747-21.68a1.08 1.08 0 0 1 1.491-.248c.466.342.56.994.249 1.46l-6.585 9.442c-.341.497-1.025.62-1.49.248a.733.733 0 0 1-.25-.28l-6.584-9.41c-.31-.466-.217-1.118.249-1.46s1.149-.217 1.49.248l5.684 8.231 5.746-8.23zm22.556 14.194v-13.293c0-.59.466-1.056 1.025-1.056.59 0 1.056.466 1.056 1.056v13.293c0 3.293 4.814 3.293 4.814 0v-13.293c0-.59.435-1.056 1.056-1.056.56 0 1.025.466 1.025 1.056v13.293c0 6.057-8.976 6.057-8.976 0zm13.2.249c0 11.399-17.455 11.368-17.455 0V138.63c0-.59.466-1.056 1.025-1.056.59 0 1.056.466 1.056 1.056v13.542c0 8.696 13.325 8.696 13.325 0V138.63c0-.59.434-1.056 1.025-1.056.559 0 1.024.466 1.024 1.056v13.542zm25.724 6.212c.59 0 1.025.466 1.025 1.056 0 .559-.434 1.025-1.025 1.025h-12.082c-.59 0-1.056-.466-1.056-1.025v-20.779c0-.559.466-1.025 1.056-1.025.56 0 1.025.466 1.025 1.025v19.723h11.057zm-8.976-19.723c0-.559.466-1.025 1.025-1.025.59 0 1.056.466 1.056 1.025v15.56h6.895c.59 0 1.025.467 1.025 1.057 0 .559-.434 1.025-1.025 1.025h-7.95c-.56 0-1.026-.466-1.026-1.025v-16.617zm27.495 15.592c-.56 0-1.025-.466-1.025-1.056s.466-1.025 1.025-1.025h1.49l-.931-2.298c-.187-.528.062-1.15.559-1.336.559-.217 1.149.031 1.366.528l1.522 3.727a.86.86 0 0 1 .093.404c0 .59-.497 1.056-1.087 1.056h-3.012zm-1.522 5.373c-.187.528-.777.777-1.336.59-.528-.248-.776-.838-.559-1.366l.746-1.895c.186-.373.59-.652.962-.652h6.43c.466 0 .87.341.994.745l.745 1.802a1.091 1.091 0 0 1-.56 1.366c-.527.187-1.148-.03-1.366-.59l-.497-1.211h-5.031l-.528 1.211zm-4.442 0a1.107 1.107 0 0 1-1.366.59c-.497-.248-.777-.838-.59-1.366l8.479-21.183c.217-.559.838-.807 1.335-.59.31.093.497.342.59.59l8.448 21.183c.218.528-.03 1.118-.559 1.366-.528.187-1.149-.062-1.366-.59l-7.485-18.853-7.486 18.853zm41.471-17.828c.56 0 .994.466.994 1.056 0 .56-.435.994-.994.994h-4.162v15.56c0 .59-.466 1.057-1.056 1.057-.559 0-1.025-.466-1.025-1.056v-16.555c0-.59.466-1.056 1.025-1.056h5.218zm-14.504-2.08c-.59 0-1.056-.467-1.056-1.026 0-.59.465-1.025 1.056-1.025h14.504c.56 0 .994.435.994 1.025 0 .56-.435 1.025-.994 1.025H193.36zm0 4.13c-.59 0-1.056-.435-1.056-.994 0-.59.465-1.056 1.056-1.056h5.155c.59 0 1.056.466 1.056 1.056v16.555c0 .59-.465 1.056-1.056 1.056-.559 0-1.056-.466-1.056-1.056v-15.56h-4.1zm48.335 1.615c.155.56-.125 1.15-.684 1.305-.559.186-1.18-.125-1.335-.684a9.88 9.88 0 0 0-3.603-4.938 10.06 10.06 0 0 0-5.84-1.864c-12.95 0-12.95 19.443 0 19.443 2.206 0 4.225-.683 5.84-1.863 1.708-1.211 2.95-2.92 3.603-4.939.155-.559.776-.838 1.335-.683s.839.777.684 1.336a11.93 11.93 0 0 1-4.349 5.994c-2.019 1.429-4.441 2.298-7.112 2.298-15.747 0-15.747-23.698 0-23.698 2.67 0 5.093.839 7.112 2.268 2.02 1.49 3.572 3.571 4.349 6.025zm-17.86 7.3c-.31-.529-.124-1.12.373-1.43.528-.28 1.15-.124 1.429.404.497.808 1.18 1.522 1.988 1.957a4.927 4.927 0 0 0 2.609.745c1.49 0 2.826-.59 3.758-1.584.994-.963 1.584-2.33 1.584-3.851 0-1.49-.59-2.858-1.584-3.82a5.224 5.224 0 0 0-3.758-1.584c-.963 0-1.833.248-2.61.714a5.707 5.707 0 0 0-1.987 1.957c-.28.528-.9.714-1.429.435a1.055 1.055 0 0 1-.372-1.46c.652-1.15 1.584-2.112 2.702-2.765s2.391-.993 3.696-.993c2.08 0 3.944.838 5.31 2.205 1.305 1.366 2.144 3.23 2.144 5.31s-.839 3.945-2.143 5.312a7.364 7.364 0 0 1-5.311 2.236c-1.305 0-2.578-.372-3.696-.994a7.772 7.772 0 0 1-2.702-2.795zm38.645-4.753c-.28 0-.683.031-1.025 0-1.615-.093-1.677-2.05 0-2.05.963 0 2.112.155 2.112-1.056 0-.621-.497-1.056-1.087-1.056h-3.696c-1.366 0-1.366-2.08 0-2.08h3.696c1.895 0 3.137 1.583 3.137 3.167 0 1.74-1.429 3.075-3.137 3.075zm1.926 10.809c.776 1.118-.9 2.329-1.708 1.21l-2.858-4.13v3.54c0 1.367-2.08 1.367-2.08 0v-6.77c0-1.118 1.304-1.429 1.894-.652l4.752 6.802zm-8.728.62c0 1.367-2.08 1.367-2.08 0v-20.778c0-.559.496-1.025 1.055-1.025h8.169c6.367 0 9.566 7.796 5.093 12.393-.9.9-2.018 1.584-3.26 1.894l4.813 6.896c.777 1.118-.931 2.329-1.677 1.21l-5.746-8.23a1.03 1.03 0 0 1 .777-1.708c4.565 0 6.802-5.653 3.603-8.883a5.07 5.07 0 0 0-3.603-1.49h-7.144v19.722z"/></svg>