<?xml version="1.0" standalone="no"?>
<!DOCTYPE svg PUBLIC "-//W3C//DTD SVG 20010904//EN"
 "http://www.w3.org/TR/2001/REC-SVG-20010904/DTD/svg10.dtd">
<svg version="1.0" xmlns="http://www.w3.org/2000/svg"
 width="1024.000000pt" height="1024.000000pt" viewBox="0 0 1024.000000 1024.000000"
 preserveAspectRatio="xMidYMid meet">
<metadata>
Created by potrace 1.14, written by Peter Selinger 2001-2017
</metadata>
<g transform="translate(0.000000,1024.000000) scale(0.100000,-0.100000)"
fill="#000000" stroke="none">
<path d="M1515 6699 c-156 -23 -308 -79 -439 -163 -76 -50 -207 -175 -262
-252 -57 -79 -118 -209 -146 -309 -23 -80 -23 -82 -23 -850 0 -768 0 -770 23
-850 48 -171 136 -318 263 -441 167 -160 356 -250 594 -283 53 -8 1157 -11
3603 -11 3838 0 3625 -3 3797 55 279 93 507 302 608 556 64 160 62 129 62 974
0 768 0 770 -23 850 -48 173 -137 320 -268 445 -119 113 -236 184 -389 235
-172 58 43 55 -3805 54 -1950 -1 -3562 -5 -3595 -10z m7288 -463 c151 -55 284
-178 339 -313 l23 -58 3 -715 c3 -690 2 -717 -17 -780 -49 -161 -183 -292
-363 -358 l-73 -27 -3570 -3 c-3520 -2 -3571 -2 -3648 17 -189 48 -334 167
-399 329 l-23 57 -3 705 c-2 511 0 720 8 760 39 181 221 354 425 404 52 12
541 14 3640 13 l3580 -2 78 -29z"/>
<path d="M2200 5613 c-55 -29 -80 -75 -80 -149 0 -35 -2 -64 -4 -64 -2 0 -37
16 -77 35 -106 51 -175 44 -232 -24 -70 -84 -35 -207 73 -256 22 -10 40 -22
40 -26 0 -5 -17 -17 -39 -28 -109 -56 -133 -176 -52 -264 33 -35 44 -41 92
-45 48 -4 64 0 127 32 l72 36 0 -78 c0 -66 4 -85 23 -113 45 -68 143 -90 208
-46 60 40 79 80 79 163 l0 73 75 -36 c64 -30 83 -35 126 -31 63 6 99 32 123
90 36 87 2 174 -85 219 -22 11 -39 23 -39 28 0 4 18 16 40 26 113 51 145 189
62 268 -60 57 -119 61 -221 12 -40 -19 -75 -35 -77 -35 -2 0 -4 25 -4 56 0
104 -51 164 -144 171 -36 3 -62 -1 -86 -14z"/>
<path d="M3620 5608 c-56 -38 -74 -71 -78 -143 -2 -36 -6 -65 -9 -65 -2 0 -34
16 -70 35 -75 40 -118 44 -179 16 -56 -25 -84 -73 -84 -142 0 -71 25 -110 95
-150 l55 -31 -52 -32 c-65 -39 -90 -80 -90 -147 1 -94 64 -159 154 -159 38 0
64 8 113 35 l63 36 3 -80 c4 -88 19 -118 80 -159 28 -20 43 -23 87 -20 97 8
152 79 152 195 l0 63 70 -35 c48 -24 83 -35 113 -35 84 0 147 69 147 160 0 64
-28 109 -89 146 l-51 32 54 30 c67 39 96 83 96 148 0 68 -26 114 -80 142 -62
31 -105 28 -183 -13 -36 -19 -68 -35 -70 -35 -2 0 -7 30 -10 66 -5 73 -23 105
-77 142 -23 15 -48 22 -80 22 -32 0 -57 -7 -80 -22z"/>
<path d="M5050 5612 c-55 -27 -80 -74 -80 -148 0 -35 -2 -64 -4 -64 -2 0 -37
16 -77 35 -106 51 -175 44 -232 -24 -70 -84 -35 -207 73 -256 22 -10 40 -22
40 -26 0 -5 -17 -17 -39 -28 -109 -56 -133 -176 -52 -264 33 -35 44 -41 92
-45 48 -4 64 0 127 32 l72 36 0 -78 c0 -66 4 -85 23 -113 45 -68 143 -90 208
-46 60 40 79 80 79 163 l0 73 72 -34 c82 -40 134 -44 188 -17 49 24 83 91 77
155 -6 67 -30 97 -123 153 -17 11 -16 13 16 30 19 11 51 35 72 54 101 98 28
270 -114 270 -19 0 -66 -16 -107 -35 -40 -19 -75 -35 -77 -35 -2 0 -4 29 -4
64 0 49 -5 71 -23 97 -28 42 -79 69 -132 69 -22 0 -56 -8 -75 -18z"/>
<path d="M6462 5609 c-46 -30 -72 -86 -72 -154 0 -30 -2 -55 -6 -55 -3 0 -35
16 -71 35 -75 40 -118 44 -179 16 -56 -25 -84 -73 -84 -142 0 -72 25 -110 96
-150 l57 -32 -46 -23 c-108 -55 -135 -175 -60 -264 51 -61 127 -68 221 -21 34
17 64 31 67 31 3 0 5 -30 5 -67 0 -82 27 -136 80 -164 49 -26 119 -25 160 4
60 40 75 70 78 157 l4 79 69 -34 c80 -41 137 -45 187 -15 48 30 72 75 72 140
0 71 -24 110 -90 148 l-50 29 50 27 c85 46 124 120 102 195 -36 119 -140 152
-272 86 l-70 -35 0 57 c0 67 -27 122 -76 153 -41 28 -128 27 -172 -1z"/>
<path d="M7900 5611 c-56 -29 -74 -62 -78 -141 -2 -39 -6 -70 -7 -70 -2 0 -36
16 -76 35 -41 19 -88 35 -107 35 -134 0 -211 -159 -125 -260 14 -17 48 -43 76
-57 l51 -25 -46 -24 c-116 -59 -143 -177 -59 -267 33 -35 44 -41 92 -45 48 -4
64 0 127 32 l72 36 0 -78 c0 -66 4 -85 23 -112 65 -96 209 -90 266 10 16 29
21 55 21 108 l0 71 75 -36 c65 -30 83 -35 127 -31 44 5 57 11 89 46 82 87 57
207 -55 264 -45 23 -47 19 33 71 57 37 76 71 76 137 0 89 -52 148 -139 157
-40 5 -58 0 -120 -31 -41 -20 -77 -36 -80 -36 -3 0 -6 29 -6 64 0 49 -5 71
-23 97 -43 65 -137 88 -207 50z"/>
</g>
</svg>
